<?xml version="1.0" encoding="UTF-8"?>
<svg width="127px" height="27px" viewBox="0 0 127 27" version="1.1" xmlns="http://www.w3.org/2000/svg" xmlns:xlink="http://www.w3.org/1999/xlink">
    <!-- Generator: Sketch 52.5 (67469) - http://www.bohemiancoding.com/sketch -->
    <title>logo/white</title>
    <desc>Created with Sketch.</desc>
    <g id="0214" stroke="none" stroke-width="1" fill="none" fill-rule="evenodd">
        <g id="L_PDP_opt1" transform="translate(-80.000000, -76.000000)" fill="#96151D">
            <g id="NAV">
                <g id="Nav-bar-L" transform="translate(0.000000, 42.000000)">
                    <g id="Logo/oldred" transform="translate(80.000000, 34.000000)">
                        <path d="M47.7606873,19.66518 L47.7606873,19.83069 L41.6060377,19.83069 L41.6060377,17.43471 L41.6501094,17.428365 L41.6037003,17.428365 C41.6060377,17.42607 41.6037003,11.135745 41.6037003,11.135745 C41.5908517,10.76895 41.7262823,9.12978 39.8616116,9.148275 C39.863368,9.152865 37.9479243,9.18 37.9922797,11.485935 L37.9922797,11.48769 L37.9858621,17.713755 C38.0410261,19.62954 39.1847962,19.6695 39.1891736,19.6695 L39.1891736,19.83069 L32.9665249,19.83069 L32.9665249,19.828935 L29.4228196,19.828935 C29.2856461,19.845405 24.9597694,19.986075 24.7861171,15.957 L24.7861171,13.779045 C24.7861171,13.779045 23.0717522,14.16042 22.5364878,14.57136 C22.5364878,14.57136 21.1641852,15.441435 22.0692359,16.93386 C22.0692359,16.93386 22.7419576,18.114165 24.917454,17.678115 L23.8559637,19.83528 L21.7604502,19.83528 C21.7604502,19.83528 16.8680724,19.935315 16.2951673,16.34067 C16.2951673,16.31556 15.855342,13.521195 19.1959149,12.38895 C19.1959149,12.38895 20.3376584,11.986785 22.5111013,11.603115 C22.5347449,11.603115 24.3678818,11.340945 24.538913,10.347345 C24.5809446,10.17144 24.5663531,9.97029 24.4776287,9.74808 C24.5070954,9.82557 23.6446709,7.55973 18.3670507,9.850815 C18.3903971,9.875925 19.453914,6.53886 19.453914,6.53886 C19.453914,6.53886 24.4248021,5.07789 27.8920372,7.207245 C27.8689881,7.23033 29.7041651,8.204895 29.6787786,11.263725 C29.6787786,11.236185 29.7339426,15.493815 29.7339426,15.493815 C29.7272278,15.554565 29.7295651,17.661375 31.8034886,17.778555 C31.8034886,17.799615 32.5395482,17.79327 32.9624447,17.791245 L32.9624447,8.55738 C32.9624447,8.505 33.0745154,6.58287 31.791221,6.496875 L31.791221,6.3207 L37.9943198,6.07986 L37.9922797,7.64964 C38.3287891,7.316595 39.6984706,6.09849 41.7221886,6.060825 C41.7221886,6.060825 46.5488912,5.890995 46.5407307,10.62018 C46.5427709,10.62018 46.5488912,17.42607 46.5488912,17.42607 C46.5109533,19.63386 47.7606873,19.66518 47.7606873,19.66518 Z" id="Clip-2"></path>
                        <path d="M0.0175097872,0.274923047 L0.0175097872,0.07182 L6.74886106,0.07182 L11.577901,14.175135 L15.1513837,2.859705 C15.1513837,2.859705 15.8807285,0.95634 13.9270497,0.20169 L13.9270497,0.0405 L19.3184969,0.0405 L12.5060007,19.98162 L9.67091489,18.889335 C9.67091489,18.889335 7.37489,18.210555 6.15260957,14.76657 L1.72106617,2.53044 C1.72106617,2.53044 1.16203629,0.553145526 0.0175097872,0.274923047 Z" id="Clip-5"></path>
                        <path d="M119.969199,17.428365 C119.937719,19.793025 121.19583,19.667205 121.197586,19.667205 L121.197586,19.83501 L114.865555,19.83069 L114.865555,19.828935 L114.863529,19.83069 L114.863529,11.324205 L114.861502,11.1483 C114.861502,11.227815 114.861502,8.974665 112.886517,8.951445 C112.863144,8.974665 110.569172,8.73153 110.569172,13.01805 C110.545799,13.04127 110.545799,18.032355 114.423622,17.390835 C114.423622,17.411625 113.064182,19.822185 113.064182,19.822185 C113.064182,19.822185 109.919986,20.90583 107.312838,18.12051 C107.312838,18.12051 105.329747,16.39737 105.329747,13.01805 C105.35312,13.04127 105.264355,9.835965 107.312838,7.804485 C107.291897,7.869825 110.476084,4.272615 114.861502,7.04808 L114.861502,2.549745 C114.861502,2.501415 114.973235,0.57726 113.689995,0.490995 L113.689995,0.316845 L119.965146,0.073845 L119.969199,17.428365 Z" id="Clip-9"></path>
                        <path d="M101.126452,7.86348 C102.500754,5.274585 105.139517,6.077295 105.139517,6.077295 L105.139517,9.4608 C100.955407,8.7669 101.130776,11.917665 101.126452,11.8989 L101.124426,11.8989 L101.122399,17.42202 C101.094972,19.76373 102.295663,19.671525 102.354839,19.6695 L102.354839,19.83069 L96.0942798,19.83069 L96.0942798,19.828935 L92.4726181,19.828935 C92.3415649,19.845405 88.0134319,19.986075 87.8423872,15.957 L87.8423872,13.779045 C87.8423872,13.779045 86.1230234,14.16042 85.5884074,14.57136 C85.5884074,14.57136 84.2201851,15.441435 85.1251277,16.93386 C85.1251277,16.93386 85.7955255,18.114165 87.9710085,17.677845 L86.9096128,19.837035 L84.8103298,19.837035 C84.8103298,19.837035 79.9220457,19.935315 79.3487894,16.3404 C79.3487894,16.31529 78.9090181,13.5189 82.2495234,12.39138 C82.2495234,12.39138 83.3913074,11.986785 85.5630074,11.603115 C85.5884074,11.603115 87.4195043,11.340945 87.5905489,10.347615 C87.6328372,10.17144 87.6222989,9.972315 87.5312372,9.74808 C87.5566372,9.827325 86.6983064,7.55973 81.4188894,9.850545 C81.4480723,9.875655 82.5098734,6.53886 82.5098734,6.53886 C82.5098734,6.53886 87.4807074,5.07762 90.9482128,7.207245 C90.9229479,7.23276 92.7560713,8.20719 92.7344543,11.26143 C92.7344543,11.236185 92.7875511,15.494085 92.7875511,15.494085 C92.7794447,15.55659 92.781066,17.661375 94.8576511,17.77653 C94.8576511,17.79759 95.6882851,17.793 96.0922532,17.791245 L96.0922532,16.700985 L96.0942798,8.55711 C96.0942798,8.505 96.2042564,6.58044 94.9230426,6.49458 L94.9230426,6.322995 L101.126452,6.07959 L101.126452,7.86348 Z" id="Clip-12"></path>
                        <path d="M54.9239737,13.55481 C56.8207457,13.55481 56.6006845,10.917585 56.6006845,10.87803 C56.5604093,8.61408 54.9283647,8.681175 54.9283647,8.681175 C53.1290719,8.681175 53.2008674,10.940805 53.1798584,10.917585 C52.9831435,13.42467 54.7888538,13.58613 54.9239737,13.55481 Z M69.0924585,6.061095 L69.0924585,14.87538 C69.0924585,14.87538 69.0477383,16.78482 70.7900702,16.76808 C70.7816936,16.736895 72.6317053,17.04699 72.6993936,14.41854 C72.7031766,14.420565 72.7031766,14.424615 72.7056085,14.424615 L72.7076351,12.822975 L72.7076351,8.55711 C72.7076351,8.505 72.8193681,6.58287 71.5363979,6.496875 L71.5363979,6.3207 L77.7377809,6.07959 L77.7377809,17.42634 C77.7353489,17.4744 77.623616,19.608345 78.9681947,19.6695 L78.9681947,19.83069 L72.6993936,19.83069 L72.7014202,18.22068 C72.4455287,18.481095 71.0481234,19.80774 68.9380319,19.8477 C68.9380319,19.8477 64.0240777,20.019555 64.0344809,15.28605 C64.015566,15.25041 64.0261043,10.24488 64.0306979,8.53659 L60.2517994,8.53659 C60.3936476,8.65404 60.5798512,8.903115 60.5818913,8.903115 C62.7028048,11.619855 60.6411354,13.879755 60.6221665,13.900545 C59.2606589,15.80634 54.8670669,16.34067 54.8670669,16.34067 L54.594179,16.37199 C53.1057255,16.42437 53.5791113,17.17902 53.5834887,17.18334 C53.7991726,17.686485 54.8714444,17.6067 54.8714444,17.6067 L57.3872333,17.6067 C62.4807034,17.590095 63.0238446,20.927295 63.0454346,20.927295 C63.8824862,25.60815 59.1695972,27.00405 54.4651795,26.880525 C49.7969567,26.91171 48.0674194,24.878745 48.084051,24.895215 C46.9000056,23.522265 47.5260346,21.60432 49.6256418,21.023685 C51.1774332,20.596005 53.0105701,21.023685 53.0105701,21.023685 C51.6172585,21.218625 51.8644627,22.63761 51.8668,22.64814 C52.3337682,24.32484 54.7188012,24.341985 54.8626895,24.34401 C57.9093654,24.1866 57.9960497,22.70484 57.9960497,21.97935 C57.9960497,21.02166 57.2010297,20.446965 57.2010297,20.446965 C56.0972376,19.635885 54.0084253,19.89171 52.5541132,19.828665 C50.5155065,19.713105 49.9869568,17.79759 49.8900585,17.2125 C49.7946194,16.619715 49.90465,16.382655 50.244956,16.164495 C50.8601899,15.801615 52.2578789,15.642855 52.0991154,15.6465 L52.1288794,15.640425 C52.1034929,15.63408 52.086564,15.63408 52.0845239,15.63408 C50.3316402,15.07653 49.2914562,13.600845 49.2722035,13.600845 C47.0441777,10.41471 49.6425706,7.90317 49.6425706,7.90317 C51.1330643,6.465285 53.0272152,6.142365 54.7188012,6.061095 L69.0924585,6.061095 Z" id="Clip-15"></path>
                        <path d="M122.001469,2.572695 C122.001469,3.752865 122.969777,4.71501 124.162361,4.71501 C125.352783,4.71501 126.318523,3.752865 126.318523,2.572695 C126.318523,1.39239 125.352783,0.430245 124.162361,0.430245 C122.969777,0.430245 122.001469,1.39239 122.001469,2.572695 Z M121.654651,2.572695 C121.654651,1.204065 122.777115,0.086535 124.162361,0.086535 C125.543013,0.086535 126.667909,1.204065 126.667909,2.572695 C126.667909,3.94362 125.543013,5.05872 124.162361,5.05872 C122.777115,5.05872 121.654651,3.94362 121.654651,2.572695 Z" id="Clip-18"></path>
                        <path d="M123.618828,2.729835 L123.618828,4.05243 L123.206483,4.05243 L123.206483,1.124145 L124.261529,1.124145 C124.758585,1.124145 125.267801,1.27926 125.267801,1.858005 C125.267801,2.210085 125.056495,2.480355 124.716297,2.56392 L124.716297,2.572695 C125.06933,2.65626 125.116077,2.84499 125.162148,3.17196 C125.206868,3.46356 125.240645,3.775815 125.34846,4.05243 L124.908553,4.05243 C124.872345,3.87855 124.823977,3.688065 124.8029,3.51189 C124.77115,3.24972 124.77115,3.01077 124.635638,2.862 C124.517555,2.729835 124.35259,2.742525 124.189787,2.729835 L123.618828,2.729835 Z M123.608424,2.38194 L124.284632,2.38194 C124.739265,2.36088 124.840865,2.157435 124.840865,1.927125 C124.840865,1.69452 124.739265,1.490805 124.284632,1.472175 L123.608424,1.472175 L123.608424,2.38194 Z" id="Clip-21"></path>
                    </g>
                </g>
            </g>
        </g>
    </g>
</svg>